<?xml version="1.0" encoding="utf-8"?>
<!-- Generator: Adobe Illustrator 25.2.1, SVG Export Plug-In . SVG Version: 6.00 Build 0)  -->
<svg version="1.1" id="Capa_1" xmlns="http://www.w3.org/2000/svg" xmlns:xlink="http://www.w3.org/1999/xlink" x="0px" y="0px"
	 viewBox="0 0 1080 1080" style="enable-background:new 0 0 1080 1080;" xml:space="preserve">
<style type="text/css">
	.st0{fill:url(#SVGID_1_);}
	.st1{fill:#FBBA00;}
	.st2{fill:#FFFFFF;}
	.st3{fill:url(#SVGID_2_);}
	.st4{fill:#6E368C;}
	.st5{fill:url(#SVGID_3_);}
	.st6{fill:#E52330;}
	.st7{fill:url(#SVGID_4_);}
	.st8{fill:#008BD2;}
</style>
<g>
	<g>
		
			<linearGradient id="SVGID_1_" gradientUnits="userSpaceOnUse" x1="428.6262" y1="481.1808" x2="598.7326" y2="579.3918" gradientTransform="matrix(0 -1 1 0 -120.1471 928.9436)">
			<stop  offset="0.25" style="stop-color:#FBBA00"/>
			<stop  offset="0.8" style="stop-color:#B55103"/>
		</linearGradient>
		<path class="st0" d="M506.27,389.29c7.27,9.24,7.27,22.18,0,31.42c-47.8,60.74-109.73,97.28-114.63,96.85
			c-7.33-0.64,4.05-14.15,4.49-14.75c-0.65,0.48-14.78,10.06-17.87,6.69c-3.09-3.35,8.38-15.22,9-15.93
			c-0.82,0.36-16.39,7.71-17.8,3.1c-1.45-4.73,15.18-15.64,15.18-15.64s-13.65-5.5-12.35-10.49c1.29-4.99,18.02-3.65,18.02-3.65
			c11.92-10.1,44.61-52.26,52-61.88c-7.39-9.63-40.08-51.78-52-61.88c0,0-16.73,1.34-18.02-3.65c-1.29-4.99,12.35-10.49,12.35-10.49
			s-16.63-10.91-15.18-15.64c1.41-4.6,16.98,2.75,17.8,3.1c-0.63-0.72-12.09-12.58-9-15.93c3.09-3.37,17.22,6.21,17.87,6.69
			c-0.44-0.6-11.82-14.11-4.49-14.75C396.55,292.01,458.48,328.55,506.27,389.29z"/>
		<path class="st1" d="M442.31,405c-7.39-9.63-40.08-51.78-52-61.88c0,0-16.73,1.34-18.02-3.65c-1.29-4.99,12.35-10.49,12.35-10.49
			s-16.63-10.91-15.18-15.64c1.41-4.6,16.98,2.75,17.8,3.1c-0.63-0.72-12.09-12.58-9-15.93c3.09-3.37,17.22,6.21,17.87,6.69
			c-0.44-0.6-11.82-14.11-4.49-14.75c4.91-0.43,66.84,36.11,114.63,96.85c7.27,9.24,7.27,22.18,0,31.42
			c-19.47,24.74-41.28,45.46-60.63,61.31c0,0,11.63-14.84,9.15-39.63C452.11,415.62,442.31,405,442.31,405z"/>
		<path class="st1" d="M399.6,372.75c-21.54-11.16-38.88-7.92-47.98,5.52c-0.95-5.8-2.65-10-4.15-9.84
			c-1.71,0.17-2.53,5.93-1.91,13.03c-2.58-4.92-5.14-7.88-6.73-7.34c-2.4,0.82-1.67,9.34,1.56,19.3c-1.81-0.82-3.36-0.97-4.47-0.28
			c-4.07,2.52-0.87,15.05,7.14,27.99c3.85,6.22,8.12,11.38,11.96,14.81c9.68,9.8,25.48,11.21,44.58,1.32
			c15.82-8.19,23.75-21.23,23.75-32.25C423.35,393.98,415.41,380.94,399.6,372.75z"/>
		<path class="st2" d="M388.28,385.32c10.87,0,19.68,8.81,19.68,19.68c0,10.87-8.81,19.68-19.68,19.68V385.32z"/>
	</g>
	<g>
		
			<linearGradient id="SVGID_2_" gradientUnits="userSpaceOnUse" x1="502.3698" y1="497.4447" x2="672.4762" y2="595.6557" gradientTransform="matrix(0 1 -1 0 1216.7769 -192.6862)">
			<stop  offset="0.25" style="stop-color:#6E368C"/>
			<stop  offset="0.8" style="stop-color:#3B1151"/>
		</linearGradient>
		<path class="st3" d="M574.09,420.71c-7.27-9.24-7.27-22.18,0-31.42c47.8-60.74,109.73-97.28,114.63-96.85
			c7.33,0.64-4.05,14.15-4.49,14.75c0.65-0.48,14.78-10.06,17.87-6.69c3.09,3.35-8.38,15.22-9,15.93c0.82-0.36,16.39-7.71,17.8-3.1
			c1.45,4.73-15.18,15.64-15.18,15.64s13.65,5.5,12.35,10.49c-1.29,4.99-18.02,3.65-18.02,3.65c-11.92,10.1-44.61,52.26-52,61.88
			c7.39,9.63,40.08,51.78,52,61.88c0,0,16.73-1.34,18.02,3.65c1.29,4.99-12.35,10.49-12.35,10.49s16.63,10.91,15.18,15.64
			c-1.41,4.6-16.98-2.75-17.8-3.1c0.63,0.72,12.09,12.58,9,15.93c-3.09,3.37-17.22-6.21-17.87-6.69c0.44,0.6,11.82,14.11,4.49,14.75
			C683.82,517.99,621.89,481.45,574.09,420.71z"/>
		<path class="st4" d="M638.06,405c7.39,9.63,40.08,51.78,52,61.88c0,0,16.73-1.34,18.02,3.65c1.29,4.99-12.35,10.49-12.35,10.49
			s16.63,10.91,15.18,15.64c-1.41,4.6-16.98-2.75-17.8-3.1c0.63,0.72,12.09,12.58,9,15.93c-3.09,3.37-17.22-6.21-17.87-6.69
			c0.44,0.6,11.82,14.11,4.49,14.75c-4.91,0.43-66.84-36.11-114.63-96.85c-7.27-9.24-7.27-22.18,0-31.42
			c19.47-24.74,41.28-45.46,60.63-61.31c0,0-11.63,14.84-9.15,39.63C628.26,394.38,638.06,405,638.06,405z"/>
		<path class="st4" d="M737.3,388.88c-3.85-6.22-8.12-11.38-11.96-14.81c-9.68-9.8-25.48-11.21-44.58-1.32
			c-15.82,8.19-23.75,21.23-23.75,32.25c0,11.02,7.93,24.06,23.75,32.25c21.54,11.16,38.88,7.92,47.98-5.52
			c0.95,5.8,2.65,10,4.15,9.84c1.71-0.17,2.53-5.93,1.91-13.03c2.58,4.92,5.14,7.88,6.73,7.34c2.4-0.82,1.67-9.34-1.56-19.3
			c1.81,0.82,3.36,0.97,4.47,0.28C748.51,414.35,745.31,401.82,737.3,388.88z"/>
		<path class="st2" d="M692.09,424.68c-10.87,0-19.68-8.81-19.68-19.68c0-10.87,8.81-19.68,19.68-19.68V424.68z"/>
	</g>
	<g>
		<linearGradient id="SVGID_3_" gradientUnits="userSpaceOnUse" x1="444.8664" y1="225.8511" x2="614.9727" y2="324.062">
			<stop  offset="0.25" style="stop-color:#E52330"/>
			<stop  offset="0.8" style="stop-color:#8B1A18"/>
		</linearGradient>
		<path class="st5" d="M555.89,371.09c-9.24,7.27-22.18,7.27-31.42,0c-60.74-47.8-97.28-109.73-96.85-114.63
			c0.64-7.33,14.15,4.05,14.75,4.49c-0.48-0.65-10.06-14.78-6.69-17.87c3.35-3.09,15.22,8.38,15.93,9
			c-0.36-0.82-7.71-16.39-3.1-17.8c4.73-1.45,15.64,15.18,15.64,15.18s5.5-13.65,10.49-12.35c4.99,1.29,3.65,18.02,3.65,18.02
			c10.1,11.92,52.26,44.61,61.88,52c9.63-7.39,51.78-40.08,61.88-52c0,0-1.34-16.73,3.65-18.02c4.99-1.29,10.49,12.35,10.49,12.35
			s10.91-16.63,15.64-15.18c4.6,1.41-2.75,16.98-3.1,17.8c0.72-0.63,12.58-12.09,15.93-9c3.37,3.09-6.21,17.22-6.69,17.87
			c0.6-0.44,14.11-11.82,14.75-4.49C653.17,261.36,616.63,323.29,555.89,371.09z"/>
		<path class="st6" d="M540.18,307.13c9.63-7.39,51.78-40.08,61.88-52c0,0-1.34-16.73,3.65-18.02c4.99-1.29,10.49,12.35,10.49,12.35
			s10.91-16.63,15.64-15.18c4.6,1.41-2.75,16.98-3.1,17.8c0.72-0.63,12.58-12.09,15.93-9c3.37,3.09-6.21,17.22-6.69,17.87
			c0.6-0.44,14.11-11.82,14.75-4.49c0.43,4.91-36.11,66.84-96.85,114.63c-9.24,7.27-22.18,7.27-31.42,0
			c-24.74-19.47-45.46-41.28-61.31-60.63c0,0,14.84,11.63,39.63,9.15C529.57,316.93,540.18,307.13,540.18,307.13z"/>
		<g>
			<path class="st6" d="M520.94,228.5c24.27,6.21,42.33,3.09,53.34-1.78c-5.44-10.41-17.41-16.58-34.09-16.58
				c-32.12,0-46.84,22.8-30.89,54.95c7.85,15.82,20.34,23.75,30.89,23.75c10.56,0,23.05-7.93,30.89-23.75
				c5.09-10.26,7.04-19.57,6.32-27.49C558.09,243.21,537.28,241.12,520.94,228.5z"/>
			<path class="st2" d="M524.57,258.84c0,8.63,6.99,15.62,15.62,15.62c8.63,0,15.62-6.99,15.62-15.62H524.57z"/>
			<path class="st6" d="M526.68,205.86c-20.33,3.24-21.41,12.3-31.92,17.67c-12.61,6.44-25.6,4.04-35.94-6.28
				c11.88-3.48,21.41-12.3,31.92-17.67C503.35,193.14,516.34,195.54,526.68,205.86z"/>
		</g>
	</g>
	<g>
		
			<linearGradient id="SVGID_4_" gradientUnits="userSpaceOnUse" x1="246.297" y1="343.9408" x2="416.4033" y2="442.1517" gradientTransform="matrix(-1 0 0 -1 881.7965 928.0907)">
			<stop  offset="0.25" style="stop-color:#008BD2"/>
			<stop  offset="0.8" style="stop-color:#003770"/>
		</linearGradient>
		<path class="st7" d="M524.47,438.91c9.24-7.27,22.18-7.27,31.42,0c60.74,47.8,97.28,109.73,96.85,114.63
			c-0.64,7.33-14.15-4.05-14.75-4.49c0.48,0.65,10.06,14.78,6.69,17.87c-3.35,3.09-15.22-8.38-15.93-9
			c0.36,0.82,7.71,16.39,3.1,17.8c-4.73,1.45-15.64-15.18-15.64-15.18s-5.5,13.65-10.49,12.35c-4.99-1.29-3.65-18.02-3.65-18.02
			c-10.1-11.92-52.26-44.61-61.88-52c-9.63,7.39-51.78,40.08-61.88,52c0,0,1.34,16.73-3.65,18.02
			c-4.99,1.29-10.49-12.35-10.49-12.35s-10.91,16.63-15.64,15.18c-4.6-1.41,2.75-16.98,3.1-17.8c-0.72,0.63-12.58,12.09-15.93,9
			c-3.37-3.09,6.21-17.22,6.69-17.87c-0.6,0.44-14.11,11.82-14.75,4.49C427.2,548.64,463.74,486.71,524.47,438.91z"/>
		<path class="st8" d="M540.18,502.88c-9.63,7.39-51.78,40.08-61.88,52c0,0,1.34,16.73-3.65,18.02
			c-4.99,1.29-10.49-12.35-10.49-12.35s-10.91,16.63-15.64,15.18c-4.6-1.41,2.75-16.98,3.1-17.8c-0.72,0.63-12.58,12.09-15.93,9
			c-3.37-3.09,6.21-17.22,6.69-17.87c-0.6,0.44-14.11,11.82-14.75,4.49c-0.43-4.91,36.11-66.84,96.85-114.63
			c9.24-7.27,22.18-7.27,31.42,0c24.74,19.47,45.46,41.28,61.31,60.63c0,0-14.83-11.63-39.63-9.15
			C550.8,493.07,540.18,502.88,540.18,502.88z"/>
		<g>
			<path class="st8" d="M559.42,581.5c-24.27-6.21-42.33-3.09-53.34,1.78c5.44,10.41,17.41,16.58,34.09,16.58
				c32.12,0,46.84-22.8,30.89-54.95c-7.85-15.82-20.34-23.75-30.89-23.75c-10.56,0-23.05,7.93-30.89,23.75
				c-5.09,10.26-7.04,19.57-6.32,27.49C522.27,566.8,543.07,568.88,559.42,581.5z"/>
			<path class="st2" d="M555.79,551.16c0-8.63-6.99-15.62-15.62-15.62c-8.63,0-15.62,6.99-15.62,15.62H555.79z"/>
			<path class="st8" d="M553.68,604.14c20.33-3.24,21.41-12.3,31.92-17.67c12.61-6.44,25.6-4.04,35.94,6.28
				c-11.88,3.48-21.41,12.3-31.92,17.67C577,616.86,564.01,614.47,553.68,604.14z"/>
		</g>
	</g>
	<g>
		<g>
			<path class="st4" d="M223.94,644.2c0.16,4.27,0.82,23.95,0.82,28.06v39.21c0,11.32-0.16,22.81-1.97,33.96
				c-0.49,2.95-7.71,4.27-15.09,4.27c-8.04,0-16.08-1.48-16.08-3.77V640.26c0-3.28,16.24-3.61,18.05-3.61
				C215.9,636.65,223.12,636.65,223.94,644.2z"/>
			<path class="st4" d="M236.74,676.68c0-2.95,0-6.07-0.16-9.02l1.31-1.31c-0.16,0.16,22.48-0.33,25.76-0.82
				c2.62-0.49,2.95,1.8,2.95,3.77l-0.66,9.84c7.38-9.02,15.91-13.12,23.79-13.12c13.78,0,25.59,12.8,25.59,35.27v8.37l-1.8,34.46
				c-0.66,5.25-11.32,4.1-16.41,4.1c-5.25,0-13.45,0.33-13.45-0.82v-42.82c0-4.27-1.8-11.81-7.06-11.81
				c-12.14,0.82-12.31,23.13-12.31,52.17c0,2.95-2.13,3.28-4.27,3.28c-12.47,0-23.3,0-25.27-2.95
				C234.77,721.97,236.74,699.49,236.74,676.68z"/>
			<path class="st4" d="M321.89,709c0-27.89,21.49-46.76,49.06-46.76c4.43,0,20.34,0.98,20.34,4.76
				c-7.22,20.84-7.22,22.15-7.38,22.31c0,0.33-0.33,0.98-0.49,0.98c-5.09-1.31-9.52-1.8-13.45-1.8c-16.57,0-21.66,9.52-21.66,15.42
				c0,12.8,9.19,19.69,22.15,19.69c1.31,0,9.84-2.95,15.42-4.76c1.8,0.16,3.94,1.64,4.1,3.28l2.63,16.08c0,0.82-0.16,1.48-0.66,2.46
				c-10.5,8.2-16.74,9.84-30.19,9.84c-27.07,0-39.71-14.6-39.71-37.57C321.89,711.47,321.89,710.32,321.89,709z"/>
			<path class="st4" d="M400.47,707.2c0-10.17,0.16-36.92,0.16-38.23c0-3.28-0.16-7.71-0.16-12.3c0-9.52,0.66-19.36,4.43-20.67
				c6.73-1.48,13.13-1.97,19.36-1.97c5.58,0,7.22,0.98,7.05,6.89l-4.27,105.33l-0.66,0.49c-0.49,0.98-4.59,1.31-9.19,1.31
				c-6.4,0-14.11-0.82-15.26-2.13h-0.33c-0.49,0-0.98-0.16-0.98-0.66C400.64,739.52,400.47,712.94,400.47,707.2z"/>
			<path class="st4" d="M436.9,710.64c0-14.44,3.77-29.86,5.74-42.99c0.82-1.64,2.79-1.8,4.59-1.8c4.59,0,24.78-0.16,26.58,4.59
				c0,3.28-3.45,22.31-3.45,37.24c0,9.84,1.64,18.7,7.55,18.7c5.09,0,8.04-5.41,8.37-16.08l1.31-40.69c0-0.33,0.33-2.79,1.31-3.12
				c7.38-1.48,10.99-1.48,18.21-1.48c7.88,0,10.66,0.33,10.66,6.56c0,24.77,0.98,73.83,0.98,77.11l-22.97,0.33
				c-6.4,0.16-5.91-5.25-6.4-9.68c-6.73,6.4-14.93,10.99-24.28,10.99c-5.74,0-11.49-1.8-15.75-5.91
				C439.68,735.58,436.9,723.44,436.9,710.64z"/>
			<path class="st4" d="M550.59,662.74h-21c-2.95,0-3.45-4.76-3.45-8.86v-1.81c0-6.4,0-11.81,1.48-14.11l7.71-0.66
				c0.16,0,40.69-0.49,57.92-0.66c1.8,0,5.74-0.49,12.3,0.66c0.82,0.98,0.66,2.13,0.66,3.28l-1.31,19.52
				c-0.66,0.82-1.48,1.64-2.63,1.97c-7.38,0-13.29-0.66-20.02-0.66c0,1.48,0.16,6.56,0.16,9.35c0,1.97,0,54.31-0.49,63.82
				c-0.49,9.84-0.66,15.59-11.49,15.59c-0.66,0-14.77-0.33-16.57-1.31l-1.31-0.66L550.59,662.74z"/>
			<path class="st4" d="M637.71,662.08c6.23,0,12.47,1.15,19.36,3.28c13.62,4.43,22.48,21,22.48,34.45
				c0,31.01-13.45,50.53-46.92,50.53c-20.84,0-42.66-16.9-42.66-38.72C589.97,680.46,610.48,662.08,637.71,662.08z M635.91,728.2
				c12.14,0,15.91-16.73,15.91-25.59c0-7.71-3.61-19.03-12.96-19.03c-14.44,0-17.23,15.91-17.23,28.06
				C621.64,720.82,624.92,728.2,635.91,728.2z"/>
			<path class="st4" d="M720.57,668.81c6.73,0,13.29,1.31,18.87,5.58h0.82c0-4.27,0.33-23.79,0.49-28.06
				c0.33-8.53,0.98-10.66,9.19-11.65c7.06-0.98,21.49-4.76,21.49,4.27c0,30.85-0.82,61.2-0.82,91.88c0,4.59,0.16,9.02,0.16,13.45
				c-1.8,3.61-14.27,3.61-19.85,3.61c-10.34,0-11.65-0.66-11.65-3.45c0-0.82,0.16-1.8,0.16-2.95v-0.98
				c-8.86,5.25-17.39,7.71-24.94,7.71c-17.23,0-29.53-12.63-29.53-34.62C684.96,693.09,697.1,668.81,720.57,668.81z M727.95,724.59
				c10.66,0,10.5-16.08,10.5-22.64c0-0.98-0.16-5.09-0.16-6.07c-1.64-3.12-7.71-3.12-10.66-3.12c-0.66,0-3.45,0.16-4.1,0.16
				c-6.56,1.48-7.38,12.96-7.38,17.88C716.14,718.68,719.25,724.59,727.95,724.59z"/>
			<path class="st4" d="M823.27,662.08c6.23,0,12.47,1.15,19.36,3.28c13.62,4.43,22.48,21,22.48,34.45
				c0,31.01-13.45,50.53-46.92,50.53c-20.84,0-42.66-16.9-42.66-38.72C775.53,680.46,796.04,662.08,823.27,662.08z M821.47,728.2
				c12.14,0,15.91-16.73,15.91-25.59c0-7.71-3.61-19.03-12.96-19.03c-14.44,0-17.23,15.91-17.23,28.06
				C807.19,720.82,810.47,728.2,821.47,728.2z"/>
			<path class="st4" d="M876.1,745.1c0-2.13,0.98-12.14,0.98-14.27c0.66-0.66,1.64-0.66,2.63-0.66c4.92,0,9.84,0.66,14.77,0.66
				c3.45,0,3.94-1.15,3.94-2.3c-0.33-5.09-25.59-8.2-27.07-28.38c-1.31-20.02,4.43-36.42,37.08-36.92
				c11.32-0.16,23.79,2.95,24.45,13.29c0.16,2.3-0.16,16.24-6.07,17.23c-9.35,1.64-26.42-9.19-27.89-2.95
				c-2.62,11.49,35.44,5.25,36.59,32.65c0.66,15.91-7.38,28.38-31.83,28.38c-7.22,0-16.9-0.82-24.45-1.48
				c-2.79-0.33-2.95-1.48-3.12-3.61V745.1z"/>
		</g>
	</g>
	<g>
		<g>
			<path class="st8" d="M301.22,782.71c0-5.24-0.71-8.76-2.14-10.55c0.69-1,1.88-1.51,3.57-1.51c0.32,0,0.66,0.03,1.03,0.08
				c1.32,1.32,1.98,5.16,1.98,11.51c0,3.44-0.16,7.43-0.48,11.98c-0.63,7.94-0.95,13.76-0.95,17.46c0,10,1.93,15,5.79,15l2.94-0.56
				c0.48,0,0.87,0.21,1.19,0.64c-0.16,1.9-1.71,2.86-4.64,2.86c-2.94,0-5.2-0.89-6.79-2.66c-1.59-1.77-2.58-3.99-2.98-6.67
				c-0.4-2.67-0.6-4.88-0.6-6.63c0-1.75,0.03-3.66,0.08-5.75c0.05-2.09,0.29-5.09,0.71-9.01
				C300.79,790.97,301.22,785.57,301.22,782.71z"/>
			<path class="st8" d="M342.56,807.31l-0.4,9.13c0,4.6,0.53,7.7,1.59,9.29c0.63,1.06,1.51,1.59,2.62,1.59
				c0.32,0,0.77-0.08,1.35-0.24c1.11-0.32,2.04-0.16,2.78,0.48c-0.37,1.85-2.22,2.78-5.56,2.78c-2.28,0-3.78-0.95-4.52-2.86
				c-0.58-1.43-1.01-3.21-1.27-5.36c-0.27-2.14-0.48-3.61-0.63-4.4c-3.44,6.56-6.77,10.55-10,11.98c-1.64,0.74-3.55,1.11-5.71,1.11
				c-2.17,0-3.85-1.04-5.04-3.13c-1.19-2.09-1.79-5.15-1.79-9.17c0-4.02,0.66-8.24,1.98-12.66c1.32-4.42,3.25-8.15,5.79-11.19
				c2.54-3.04,5.32-4.56,8.33-4.56c4.34,0,7.22,1.8,8.65,5.4C341.95,798.56,342.56,802.5,342.56,807.31z M323.12,804.73
				c-0.74,2.88-1.3,5.61-1.67,8.17c-0.37,2.57-0.56,4.84-0.56,6.83c0,1.98,0.41,3.69,1.23,5.12c0.82,1.43,1.89,2.14,3.21,2.14
				c2.86,0,5.61-2.7,8.25-8.09c2.64-5.4,3.97-10.42,3.97-15.08c0-3.02-0.79-5.5-2.38-7.46c-1.06-1.27-2.45-1.9-4.17-1.9
				c-1.72,0-3.28,0.99-4.68,2.98C324.93,799.42,323.86,801.85,323.12,804.73z"/>
			<path class="st8" d="M396.13,807.31l-0.4,9.13c0,4.6,0.53,7.7,1.59,9.29c0.63,1.06,1.51,1.59,2.62,1.59
				c0.32,0,0.77-0.08,1.35-0.24c1.11-0.32,2.04-0.16,2.78,0.48c-0.37,1.85-2.22,2.78-5.56,2.78c-2.28,0-3.78-0.95-4.52-2.86
				c-0.58-1.43-1.01-3.21-1.27-5.36c-0.27-2.14-0.48-3.61-0.64-4.4c-3.44,6.56-6.77,10.55-10,11.98c-1.64,0.74-3.55,1.11-5.71,1.11
				c-2.17,0-3.85-1.04-5.04-3.13c-1.19-2.09-1.79-5.15-1.79-9.17c0-4.02,0.66-8.24,1.98-12.66c1.32-4.42,3.25-8.15,5.79-11.19
				c2.54-3.04,5.32-4.56,8.33-4.56c4.34,0,7.22,1.8,8.65,5.4C395.52,798.56,396.13,802.5,396.13,807.31z M376.69,804.73
				c-0.74,2.88-1.3,5.61-1.67,8.17c-0.37,2.57-0.56,4.84-0.56,6.83c0,1.98,0.41,3.69,1.23,5.12c0.82,1.43,1.89,2.14,3.21,2.14
				c2.86,0,5.61-2.7,8.25-8.09c2.64-5.4,3.97-10.42,3.97-15.08c0-3.02-0.79-5.5-2.38-7.46c-1.06-1.27-2.45-1.9-4.17-1.9
				c-1.72,0-3.28,0.99-4.68,2.98C378.5,799.42,377.43,801.85,376.69,804.73z"/>
			<path class="st8" d="M411.29,827.71c0.16,4.29,0.69,10.34,1.59,18.17c-1.01,1-2.2,1.51-3.57,1.51c-0.27,0-0.56-0.03-0.87-0.08
				c-0.05-2.06-0.44-6.75-1.15-14.05c-0.71-7.3-1.07-12.9-1.07-16.78c0-3.89,0.24-7.26,0.71-10.12c0.48-2.86,1.3-5.53,2.46-8.02
				c2.38-5.13,6.77-7.7,13.17-7.7c3.97,0,7.22,2.17,9.76,6.51c2.54,4.34,3.81,9.39,3.81,15.16c0,4.55-1.48,8.55-4.44,11.98
				c-2.96,3.44-7.06,5.16-12.3,5.16C416.15,829.45,413.45,828.87,411.29,827.71z M421.92,794.93c-4.5,0-7.49,2.33-8.97,6.98
				c-1.27,3.97-1.9,9.44-1.9,16.43c0,2.54,0.03,4.42,0.08,5.63c4.71,1.01,7.91,1.51,9.6,1.51c3.07,0,5.5-1.23,7.3-3.69
				c1.8-2.46,2.7-5.46,2.7-9.01c0-5.24-0.78-9.52-2.34-12.86C426.83,796.6,424.67,794.93,421.92,794.93z"/>
			<path class="st8" d="M448.66,827.71c0.16,4.29,0.69,10.34,1.59,18.17c-1.01,1-2.2,1.51-3.57,1.51c-0.27,0-0.56-0.03-0.87-0.08
				c-0.05-2.06-0.44-6.75-1.15-14.05c-0.71-7.3-1.07-12.9-1.07-16.78c0-3.89,0.24-7.26,0.71-10.12c0.48-2.86,1.3-5.53,2.46-8.02
				c2.38-5.13,6.77-7.7,13.17-7.7c3.97,0,7.22,2.17,9.76,6.51c2.54,4.34,3.81,9.39,3.81,15.16c0,4.55-1.48,8.55-4.44,11.98
				c-2.96,3.44-7.06,5.16-12.3,5.16C453.53,829.45,450.83,828.87,448.66,827.71z M459.3,794.93c-4.5,0-7.49,2.33-8.97,6.98
				c-1.27,3.97-1.9,9.44-1.9,16.43c0,2.54,0.03,4.42,0.08,5.63c4.71,1.01,7.91,1.51,9.6,1.51c3.07,0,5.5-1.23,7.3-3.69
				c1.8-2.46,2.7-5.46,2.7-9.01c0-5.24-0.78-9.52-2.34-12.86C464.2,796.6,462.05,794.93,459.3,794.93z"/>
			<path class="st8" d="M503.98,827.71c0.16,4.29,0.69,10.34,1.59,18.17c-1.01,1-2.2,1.51-3.57,1.51c-0.27,0-0.56-0.03-0.87-0.08
				c-0.05-2.06-0.44-6.75-1.15-14.05c-0.71-7.3-1.07-12.9-1.07-16.78c0-3.89,0.24-7.26,0.71-10.12c0.48-2.86,1.3-5.53,2.46-8.02
				c2.38-5.13,6.77-7.7,13.17-7.7c3.97,0,7.22,2.17,9.76,6.51s3.81,9.39,3.81,15.16c0,4.55-1.48,8.55-4.44,11.98
				c-2.96,3.44-7.06,5.16-12.3,5.16C508.84,829.45,506.14,828.87,503.98,827.71z M514.61,794.93c-4.5,0-7.49,2.33-8.97,6.98
				c-1.27,3.97-1.9,9.44-1.9,16.43c0,2.54,0.03,4.42,0.08,5.63c4.71,1.01,7.91,1.51,9.6,1.51c3.07,0,5.5-1.23,7.3-3.69
				c1.8-2.46,2.7-5.46,2.7-9.01c0-5.24-0.78-9.52-2.34-12.86C519.52,796.6,517.36,794.93,514.61,794.93z"/>
			<path class="st8" d="M561.83,807.31l-0.4,9.13c0,4.6,0.53,7.7,1.59,9.29c0.63,1.06,1.51,1.59,2.62,1.59
				c0.32,0,0.77-0.08,1.35-0.24c1.11-0.32,2.04-0.16,2.78,0.48c-0.37,1.85-2.22,2.78-5.56,2.78c-2.28,0-3.78-0.95-4.52-2.86
				c-0.58-1.43-1.01-3.21-1.27-5.36c-0.27-2.14-0.48-3.61-0.63-4.4c-3.44,6.56-6.77,10.55-10,11.98c-1.64,0.74-3.55,1.11-5.71,1.11
				c-2.17,0-3.85-1.04-5.04-3.13c-1.19-2.09-1.79-5.15-1.79-9.17c0-4.02,0.66-8.24,1.98-12.66c1.32-4.42,3.25-8.15,5.79-11.19
				c2.54-3.04,5.32-4.56,8.33-4.56c4.34,0,7.22,1.8,8.65,5.4C561.22,798.56,561.83,802.5,561.83,807.31z M542.38,804.73
				c-0.74,2.88-1.3,5.61-1.67,8.17c-0.37,2.57-0.56,4.84-0.56,6.83c0,1.98,0.41,3.69,1.23,5.12c0.82,1.43,1.89,2.14,3.21,2.14
				c2.86,0,5.61-2.7,8.25-8.09c2.64-5.4,3.97-10.42,3.97-15.08c0-3.02-0.79-5.5-2.38-7.46c-1.06-1.27-2.45-1.9-4.17-1.9
				c-1.72,0-3.28,0.99-4.68,2.98C544.2,799.42,543.12,801.85,542.38,804.73z"/>
			<path class="st8" d="M580.16,822.39l0.24,4.52c0,1.16-0.33,1.97-0.99,2.42c-0.66,0.45-1.32,0.68-1.98,0.68
				c-0.66,0-1.34-0.11-2.02-0.32c-1.16-6.14-2.05-13.78-2.66-22.93c-0.61-9.15-0.97-14.34-1.07-15.55c0.79-0.74,1.63-1.11,2.5-1.11
				c0.87,0,1.65,0.11,2.34,0.32c0.21,1.54,0.37,4.92,0.48,10.16c0.11,5.24,0.24,8.52,0.4,9.84c0.74-4.44,2.06-8.6,3.97-12.46
				c1.06-2.17,2.45-3.9,4.17-5.2c1.72-1.3,3.57-1.94,5.56-1.94s3.81,0.89,5.48,2.66c1.67,1.77,2.5,3.37,2.5,4.8
				c0,0.53-0.32,0.94-0.95,1.23s-1.34,0.44-2.1,0.44c-0.77,0-1.36-0.29-1.79-0.87c-0.42-0.58-0.71-1.23-0.87-1.94
				c-0.16-0.71-0.5-1.36-1.03-1.94c-0.53-0.58-1.24-0.87-2.14-0.87c-2.38,0-4.42,2.14-6.11,6.43
				C581.45,807.13,580.16,814.35,580.16,822.39z"/>
			<path class="st8" d="M628.09,807.31l-0.4,9.13c0,4.6,0.53,7.7,1.59,9.29c0.63,1.06,1.51,1.59,2.62,1.59
				c0.32,0,0.77-0.08,1.35-0.24c1.11-0.32,2.04-0.16,2.78,0.48c-0.37,1.85-2.22,2.78-5.56,2.78c-2.28,0-3.78-0.95-4.52-2.86
				c-0.58-1.43-1.01-3.21-1.27-5.36c-0.27-2.14-0.48-3.61-0.64-4.4c-3.44,6.56-6.77,10.55-10,11.98c-1.64,0.74-3.55,1.11-5.71,1.11
				c-2.17,0-3.85-1.04-5.04-3.13c-1.19-2.09-1.79-5.15-1.79-9.17c0-4.02,0.66-8.24,1.98-12.66c1.32-4.42,3.25-8.15,5.79-11.19
				c2.54-3.04,5.32-4.56,8.33-4.56c4.34,0,7.22,1.8,8.65,5.4C627.48,798.56,628.09,802.5,628.09,807.31z M608.65,804.73
				c-0.74,2.88-1.3,5.61-1.67,8.17c-0.37,2.57-0.56,4.84-0.56,6.83c0,1.98,0.41,3.69,1.23,5.12c0.82,1.43,1.89,2.14,3.21,2.14
				c2.86,0,5.61-2.7,8.25-8.09c2.64-5.4,3.97-10.42,3.97-15.08c0-3.02-0.79-5.5-2.38-7.46c-1.06-1.27-2.45-1.9-4.17-1.9
				c-1.72,0-3.28,0.99-4.68,2.98C610.46,799.42,609.39,801.85,608.65,804.73z"/>
			<path class="st8" d="M656.66,796.92c-2.38,0-4-0.58-4.84-1.75c0-0.85,0.36-1.51,1.07-1.98c0.71-0.48,1.49-0.78,2.34-0.91
				c0.85-0.13,2.22-0.25,4.13-0.36c0.16-1.43,0.25-3.27,0.28-5.51c0.03-2.25,0.07-4.17,0.12-5.75c0.16-4.18,0.79-6.75,1.9-7.7
				c0.48-0.42,0.99-0.64,1.55-0.64c0.56,0,1.04,0.05,1.47,0.16c0.16,3.81,0.24,6.11,0.24,6.9l-0.48,11.9
				c0.11,0.05,0.4,0.08,0.87,0.08l5.71-0.24c4.13,0,6.19,0.63,6.19,1.9c0,1.8-0.74,2.86-2.22,3.17c-0.69,0.16-1.5,0.24-2.42,0.24
				c-0.93,0-2.12-0.12-3.57-0.36c-1.46-0.24-2.5-0.36-3.13-0.36c-0.64,0-1.06,0.03-1.27,0.08c-0.16,1.54-0.24,3.06-0.24,4.56
				s0.04,3.39,0.12,5.63c0.08,2.25,0.29,4.93,0.63,8.05c0.34,3.12,1.1,5.81,2.26,8.05c1.16,2.25,2.64,3.37,4.44,3.37
				c0.9,0,1.96-0.36,3.17-1.07c1.22-0.71,2.16-1.07,2.82-1.07c0.66,0,1.24,0.15,1.75,0.44c0.5,0.29,0.75,0.62,0.75,0.99
				c0,1.11-1.12,2.18-3.37,3.21c-2.25,1.03-4.17,1.55-5.75,1.55c-5.82,0-9.44-5.5-10.87-16.51c-0.42-3.17-0.74-8.62-0.95-16.35
				C658.51,796.84,657.61,796.92,656.66,796.92z"/>
			<path class="st8" d="M687.73,797.24c2.67-4.13,6.55-6.19,11.63-6.19c5.08,0,9.14,2.06,12.18,6.19c3.04,4.13,4.56,8.82,4.56,14.09
				c0,5.27-1.67,9.72-5,13.37c-3.33,3.65-7.57,5.48-12.7,5.48c-5.13,0-8.86-1.44-11.19-4.33c-2.33-2.88-3.49-6.94-3.49-12.18
				C683.72,806.84,685.06,801.36,687.73,797.24z M691.22,801.4c-0.71,2.09-1.24,4.17-1.59,6.23c-0.35,2.06-0.52,3.98-0.52,5.75
				c0,1.77,0.13,3.39,0.4,4.84c0.26,1.46,0.71,2.88,1.35,4.29c0.63,1.4,1.59,2.51,2.86,3.33c1.27,0.82,2.78,1.23,4.52,1.23
				c3.54,0,6.52-1.45,8.93-4.37c2.41-2.91,3.61-6.43,3.61-10.55s-1.1-8.13-3.29-12.02c-2.2-3.89-4.88-5.83-8.05-5.83
				c-1.9,0-3.57,0.66-5,1.98C693,797.61,691.93,799.31,691.22,801.4z"/>
			<path class="st8" d="M753.71,766.6c-2.01,18.2-3.02,31.18-3.02,38.93c0,7.75,0.71,15.49,2.14,23.21
				c-1.06,1.06-1.98,1.59-2.78,1.59c-0.79,0-1.46-0.11-1.98-0.32c-1.11-3.92-1.77-8.17-1.98-12.78c-1.27,2.01-2.21,3.44-2.82,4.29
				c-0.61,0.85-1.65,2.09-3.13,3.73c-2.7,3.17-5.9,4.76-9.6,4.76c-2.81,0-4.83-1.31-6.07-3.93c-1.24-2.62-1.86-5.98-1.86-10.08
				c0-4.1,0.46-8.01,1.39-11.75c0.92-3.73,2.53-6.96,4.8-9.68c2.27-2.72,5.08-4.09,8.41-4.09c2.01,0,3.86,0.42,5.56,1.27
				c1.69,0.85,2.86,1.98,3.49,3.41c0.1-1.43,0.21-3.62,0.32-6.59c0.11-2.96,0.22-5.59,0.36-7.9c0.13-2.3,0.36-4.64,0.67-7.02
				c0.58-5.08,1.88-7.62,3.89-7.62C752.18,766.05,752.92,766.23,753.71,766.6z M744.47,798.03c-0.66-1.16-1.55-2.02-2.66-2.58
				c-1.11-0.56-2.58-0.83-4.4-0.83s-3.53,1.03-5.12,3.09c-3.12,4.08-4.68,9.97-4.68,17.7c0,2.49,0.4,4.96,1.19,7.42
				c0.79,2.46,1.96,3.69,3.49,3.69c2.22,0,4.39-1.45,6.51-4.36c2.12-2.91,3.76-6.26,4.92-10.04c1.16-3.78,1.75-7.18,1.75-10.2
				C745.46,800.49,745.13,799.19,744.47,798.03z"/>
			<path class="st8" d="M764.15,797.24c2.67-4.13,6.55-6.19,11.63-6.19c5.08,0,9.14,2.06,12.18,6.19c3.04,4.13,4.56,8.82,4.56,14.09
				c0,5.27-1.67,9.72-5,13.37c-3.33,3.65-7.57,5.48-12.7,5.48c-5.13,0-8.86-1.44-11.19-4.33c-2.33-2.88-3.49-6.94-3.49-12.18
				C760.14,806.84,761.48,801.36,764.15,797.24z M767.64,801.4c-0.71,2.09-1.24,4.17-1.59,6.23c-0.35,2.06-0.52,3.98-0.52,5.75
				c0,1.77,0.13,3.39,0.4,4.84c0.26,1.46,0.71,2.88,1.35,4.29c0.63,1.4,1.59,2.51,2.86,3.33c1.27,0.82,2.78,1.23,4.52,1.23
				c3.54,0,6.52-1.45,8.93-4.37c2.41-2.91,3.61-6.43,3.61-10.55s-1.1-8.13-3.29-12.02c-2.2-3.89-4.88-5.83-8.05-5.83
				c-1.9,0-3.57,0.66-5,1.98C769.43,797.61,768.35,799.31,767.64,801.4z"/>
			<path class="st8" d="M820.22,798.43c-0.48-1.22-1.38-2.17-2.7-2.86c-1.32-0.69-2.96-1.03-4.92-1.03c-1.96,0-3.8,0.58-5.52,1.75
				c-1.72,1.16-2.58,2.73-2.58,4.68c0,1.96,0.81,3.51,2.42,4.64c1.61,1.14,3.57,2,5.87,2.58c2.3,0.58,4.62,1.2,6.94,1.87
				c2.33,0.66,4.3,1.75,5.91,3.25c1.61,1.51,2.42,3.48,2.42,5.91c0,3.55-1.47,6.24-4.4,8.1c-2.94,1.85-6.47,2.78-10.59,2.78
				c-2.43,0-5.62-0.66-9.56-1.98c-3.94-1.32-5.91-2.91-5.91-4.76c0-1.37,1.16-2.06,3.49-2.06c0.69,0,1.59,0.42,2.7,1.27
				c3.39,2.49,6.85,3.73,10.4,3.73c1.9,0,3.54-0.32,4.92-0.95c2.54-1.22,3.81-3.17,3.81-5.87c0-1.64-0.81-2.96-2.42-3.97
				c-1.61-1-3.57-1.8-5.87-2.38c-2.3-0.58-4.62-1.22-6.94-1.9c-2.33-0.69-4.3-1.84-5.91-3.45c-1.61-1.61-2.42-3.66-2.42-6.15
				c0-3.23,1.45-5.85,4.36-7.86c2.91-2.01,6.51-3.02,10.79-3.02c2.91,0,5.54,0.75,7.9,2.26c2.35,1.51,3.53,3.69,3.53,6.55
				c0,1.9-1.09,2.86-3.25,2.86c-0.9,0-1.5-0.16-1.79-0.48c-0.29-0.32-0.45-0.89-0.48-1.71C820.39,799.39,820.32,798.8,820.22,798.43
				z"/>
		</g>
	</g>
</g>
</svg>
